REM DIRINDEX 1\2\6,1\2\7,1\2\8,1\2\9,1\3\10,1\3\11,1\4\12,1\4\13,1\4\14,1\5\15,1\5\16,1\5\17
REM DIRNAME folder01,folder02,folder03,folder04,folder05,folder06,folder07,folder08,folder09,folder10,folder11,folder12,folder13,folder14,folder15,folder16,folder17
TITLE ""
FILE "1900_2_sec13_1218_1234.mp3" MP3
  TRACK 01 AUDIO
    TITLE "0:"
    INDEX 01 00:00:00
  TRACK 02 AUDIO
    TITLE "13:cjc020_4572"
    INDEX 01 00:00:19
  TRACK 03 AUDIO
    TITLE "0:"
    INDEX 01 00:01:21
  TRACK 04 AUDIO
    TITLE "14:cjc020_4573"
    INDEX 01 00:01:22
  TRACK 05 AUDIO
    TITLE "0:"
    INDEX 01 00:02:61
  TRACK 06 AUDIO
    TITLE "13:cjc020_4574"
    INDEX 01 00:03:45
  TRACK 07 AUDIO
    TITLE "0:"
    INDEX 01 00:04:54
  TRACK 08 AUDIO
    TITLE "14:cjc020_4575"
    INDEX 01 00:04:60
  TRACK 09 AUDIO
    TITLE "0:"
    INDEX 01 00:05:71
  TRACK 10 AUDIO
    TITLE "13:cjc020_4576"
    INDEX 01 00:06:49
  TRACK 11 AUDIO
    TITLE "0:"
    INDEX 01 00:07:49
  TRACK 12 AUDIO
    TITLE "14:cjc020_4577"
    INDEX 01 00:07:56
  TRACK 13 AUDIO
    TITLE "0:"
    INDEX 01 00:11:19
  TRACK 14 AUDIO
    TITLE "13:cjc020_4578"
    INDEX 01 00:11:74
  TRACK 15 AUDIO
    TITLE "0:"
    INDEX 01 00:12:65
  TRACK 16 AUDIO
    TITLE "14:cjc020_4579"
    INDEX 01 00:12:69
  TRACK 17 AUDIO
    TITLE "0:"
    INDEX 01 00:15:58
  TRACK 18 AUDIO
    TITLE "13:cjc020_4580"
    INDEX 01 00:16:38
  TRACK 19 AUDIO
    TITLE "0:"
    INDEX 01 00:17:39
  TRACK 20 AUDIO
    TITLE "14:cjc020_4581"
    INDEX 01 00:17:45
  TRACK 21 AUDIO
    TITLE "0:"
    INDEX 01 00:20:57
  TRACK 22 AUDIO
    TITLE "13:cjc020_4582"
    INDEX 01 00:21:37
  TRACK 23 AUDIO
    TITLE "0:"
    INDEX 01 00:22:52
  TRACK 24 AUDIO
    TITLE "14:cjc020_4583"
    INDEX 01 00:22:56
  TRACK 25 AUDIO
    TITLE "0:"
    INDEX 01 00:26:46
  TRACK 26 AUDIO
    TITLE "13:cjc020_4584"
    INDEX 01 00:27:22
  TRACK 27 AUDIO
    TITLE "0:"
    INDEX 01 00:28:43
  TRACK 28 AUDIO
    TITLE "14:cjc020_4585"
    INDEX 01 00:28:47
  TRACK 29 AUDIO
    TITLE "0:"
    INDEX 01 00:31:04
  TRACK 30 AUDIO
    TITLE "13:cjc020_4586"
    INDEX 01 00:31:59
  TRACK 31 AUDIO
    TITLE "0:"
    INDEX 01 00:32:64
  TRACK 32 AUDIO
    TITLE "14:cjc020_4587"
    INDEX 01 00:32:68
  TRACK 33 AUDIO
    TITLE "0:"
    INDEX 01 00:36:33
  TRACK 34 AUDIO
    TITLE "13:cjc020_4588"
    INDEX 01 00:37:10
  TRACK 35 AUDIO
    TITLE "0:"
    INDEX 01 00:38:31
  TRACK 36 AUDIO
    TITLE "14:cjc020_4589"
    INDEX 01 00:38:35
  TRACK 37 AUDIO
    TITLE "0:"
    INDEX 01 00:40:64
  TRACK 38 AUDIO
    TITLE "13:cjc020_4590"
    INDEX 01 00:41:40
  TRACK 39 AUDIO
    TITLE "0:"
    INDEX 01 00:42:55
  TRACK 40 AUDIO
    TITLE "14:cjc020_4591"
    INDEX 01 00:42:61
  TRACK 41 AUDIO
    TITLE "0:"
    INDEX 01 00:46:66
  TRACK 42 AUDIO
    TITLE "13:cjc020_4592"
    INDEX 01 00:47:46
  TRACK 43 AUDIO
    TITLE "0:"
    INDEX 01 00:48:63
  TRACK 44 AUDIO
    TITLE "14:cjc020_4593"
    INDEX 01 00:48:65
  TRACK 45 AUDIO
    TITLE "0:"
    INDEX 01 00:51:65
  TRACK 46 AUDIO
    TITLE "13:cjc020_4594"
    INDEX 01 00:52:43
  TRACK 47 AUDIO
    TITLE "0:"
    INDEX 01 00:53:64
  TRACK 48 AUDIO
    TITLE "14:cjc020_4595"
    INDEX 01 00:53:68
  TRACK 49 AUDIO
    TITLE "0:"
    INDEX 01 00:56:39
  TRACK 50 AUDIO
    TITLE "13:cjc020_4596"
    INDEX 01 00:57:19
  TRACK 51 AUDIO
    TITLE "0:"
    INDEX 01 00:58:32
  TRACK 52 AUDIO
    TITLE "14:cjc020_4597"
    INDEX 01 00:58:36
  TRACK 53 AUDIO
    TITLE "0:"
    INDEX 01 01:00:62
  TRACK 54 AUDIO
    TITLE "13:cjc020_4598"
    INDEX 01 01:01:44
  TRACK 55 AUDIO
    TITLE "0:"
    INDEX 01 01:02:57
  TRACK 56 AUDIO
    TITLE "14:cjc020_4599"
    INDEX 01 01:02:63
  TRACK 57 AUDIO
    TITLE "0:"
    INDEX 01 01:06:45
  TRACK 58 AUDIO
    TITLE "13:cjc020_4600"
    INDEX 01 01:07:23
  TRACK 59 AUDIO
    TITLE "0:"
    INDEX 01 01:08:27
  TRACK 60 AUDIO
    TITLE "14:cjc020_4601"
    INDEX 01 01:08:33
  TRACK 61 AUDIO
    TITLE "0:"
    INDEX 01 01:11:25
  TRACK 62 AUDIO
    TITLE "13:cjc020_4602"
    INDEX 01 01:12:05
  TRACK 63 AUDIO
    TITLE "0:"
    INDEX 01 01:13:16
  TRACK 64 AUDIO
    TITLE "14:cjc020_4603"
    INDEX 01 01:13:18
  TRACK 65 AUDIO
    TITLE "0:"
    INDEX 01 01:16:34
  TRACK 66 AUDIO
    TITLE "13:cjc020_4604"
    INDEX 01 01:17:14
  TRACK 67 AUDIO
    TITLE "0:"
    INDEX 01 01:18:19
  TRACK 68 AUDIO
    TITLE "14:cjc020_4605"
    INDEX 01 01:18:23
  TRACK 69 AUDIO
    TITLE "0:"
    INDEX 01 01:20:69
